<svg xmlns="http://www.w3.org/2000/svg" width="340" height="340" viewBox="0 0 340 340"><g transform="translate(42.5 42.5)"><path d="M0 -17Q2.38 -2.38 13.26 0Q2.38 2.38 0 17Q-2.38 2.38 -13.26 0Q-2.38 -2.38 0 -17Z"/></g><g transform="translate(42.5 212.5)"><path d="M0 -17Q2.38 -2.38 13.26 0Q2.38 2.38 0 17Q-2.38 2.38 -13.26 0Q-2.38 -2.38 0 -17Z"/></g><g transform="translate(212.5 42.5)"><path d="M0 -17Q2.38 -2.38 13.26 0Q2.38 2.38 0 17Q-2.38 2.38 -13.26 0Q-2.38 -2.38 0 -17Z"/></g><g transform="translate(212.5 212.5)"><path d="M0 -17Q2.38 -2.38 13.26 0Q2.38 2.38 0 17Q-2.38 2.38 -13.26 0Q-2.38 -2.38 0 -17Z"/></g></svg>