<svg xmlns="http://www.w3.org/2000/svg" width="128" height="128" viewBox="0 0 128 128"><g transform="translate(32 30) rotate(-8) scale(1.15)" opacity="1"><path fill-rule="evenodd" d="M-3 -2C-8 -11 -20 -13 -21 -4C-21.8 3 -13 7 -3 2ZM-6 -1.2L-11.5 -5.2L-11 0.8ZM3 -2C8 -11 20 -13 21 -4C21.8 3 13 7 3 2ZM6 -1.2L11.5 -5.2L11 0.8Z"/><rect x="-4" y="-4.5" width="8" height="8" rx="3"/><path d="M-2.5 2.5C-4 8 -7 12 -10.5 17L-6.5 16L-5 19.5C-1.5 14 0 8 0.5 3Z"/><path d="M2.5 2.5C4 8 7 12 10.5 17L6.5 16L5 19.5C1.5 14 0 8 -0.5 3Z"/></g><g transform="translate(96 94) rotate(12) scale(0.9)" opacity="0.75"><path fill-rule="evenodd" d="M-3 -2C-8 -11 -20 -13 -21 -4C-21.8 3 -13 7 -3 2ZM-6 -1.2L-11.5 -5.2L-11 0.8ZM3 -2C8 -11 20 -13 21 -4C21.8 3 13 7 3 2ZM6 -1.2L11.5 -5.2L11 0.8Z"/><rect x="-4" y="-4.5" width="8" height="8" rx="3"/><path d="M-2.5 2.5C-4 8 -7 12 -10.5 17L-6.5 16L-5 19.5C-1.5 14 0 8 0.5 3Z"/><path d="M2.5 2.5C4 8 7 12 10.5 17L6.5 16L5 19.5C1.5 14 0 8 -0.5 3Z"/></g><circle cx="-32" cy="-98" r="2.2" opacity="0.45"/><circle cx="-32" cy="30" r="2.2" opacity="0.45"/><circle cx="-32" cy="158" r="2.2" opacity="0.45"/><circle cx="96" cy="-98" r="2.2" opacity="0.45"/><circle cx="96" cy="30" r="2.2" opacity="0.45"/><circle cx="96" cy="158" r="2.2" opacity="0.45"/><circle cx="224" cy="-98" r="2.2" opacity="0.45"/><circle cx="224" cy="30" r="2.2" opacity="0.45"/><circle cx="224" cy="158" r="2.2" opacity="0.45"/><circle cx="-98" cy="-32" r="1.8" opacity="0.4"/><circle cx="-98" cy="96" r="1.8" opacity="0.4"/><circle cx="-98" cy="224" r="1.8" opacity="0.4"/><circle cx="30" cy="-32" r="1.8" opacity="0.4"/><circle cx="30" cy="96" r="1.8" opacity="0.4"/><circle cx="30" cy="224" r="1.8" opacity="0.4"/><circle cx="158" cy="-32" r="1.8" opacity="0.4"/><circle cx="158" cy="96" r="1.8" opacity="0.4"/><circle cx="158" cy="224" r="1.8" opacity="0.4"/><circle cx="-64" cy="-64" r="1.4" opacity="0.35"/><circle cx="-64" cy="64" r="1.4" opacity="0.35"/><circle cx="-64" cy="192" r="1.4" opacity="0.35"/><circle cx="64" cy="-64" r="1.4" opacity="0.35"/><circle cx="64" cy="64" r="1.4" opacity="0.35"/><circle cx="64" cy="192" r="1.4" opacity="0.35"/><circle cx="192" cy="-64" r="1.4" opacity="0.35"/><circle cx="192" cy="64" r="1.4" opacity="0.35"/><circle cx="192" cy="192" r="1.4" opacity="0.35"/><circle cx="-124" cy="-64" r="1.1" opacity="0.3"/><circle cx="-124" cy="64" r="1.1" opacity="0.3"/><circle cx="-124" cy="192" r="1.1" opacity="0.3"/><circle cx="4" cy="-64" r="1.1" opacity="0.3"/><circle cx="4" cy="64" r="1.1" opacity="0.3"/><circle cx="4" cy="192" r="1.1" opacity="0.3"/><circle cx="132" cy="-64" r="1.1" opacity="0.3"/><circle cx="132" cy="64" r="1.1" opacity="0.3"/><circle cx="132" cy="192" r="1.1" opacity="0.3"/><circle cx="-64" cy="-124" r="1.1" opacity="0.3"/><circle cx="-64" cy="4" r="1.1" opacity="0.3"/><circle cx="-64" cy="132" r="1.1" opacity="0.3"/><circle cx="64" cy="-124" r="1.1" opacity="0.3"/><circle cx="64" cy="4" r="1.1" opacity="0.3"/><circle cx="64" cy="132" r="1.1" opacity="0.3"/><circle cx="192" cy="-124" r="1.1" opacity="0.3"/><circle cx="192" cy="4" r="1.1" opacity="0.3"/><circle cx="192" cy="132" r="1.1" opacity="0.3"/></svg>
